<svg width="24" height="24" viewBox="0 0 24 24" fill="none" xmlns="http://www.w3.org/2000/svg">
<g clip-path="url(#clip0_247_66)">
<path d="M7.24286 0.829688C7.53214 0.31875 8.12679 0 8.775 0H15.225C15.8732 0 16.4679 0.31875 16.7571 0.829688L17.1429 1.5H22.2857C23.2339 1.5 24 2.17031 24 3C24 3.82969 23.2339 4.5 22.2857 4.5H1.71429C0.766071 4.5 0 3.82969 0 3C0 2.17031 0.766071 1.5 1.71429 1.5H6.85714L7.24286 0.829688ZM1.71429 6H22.2857V21C22.2857 22.6547 20.7482 24 18.8571 24H5.14286C3.25179 24 1.71429 22.6547 1.71429 21V6ZM6.85714 9C6.38571 9 6 9.3375 6 9.75V20.25C6 20.6625 6.38571 21 6.85714 21C7.32857 21 7.71429 20.6625 7.71429 20.25V9.75C7.71429 9.3375 7.32857 9 6.85714 9ZM12 9C11.5286 9 11.1429 9.3375 11.1429 9.75V20.25C11.1429 20.6625 11.5286 21 12 21C12.4714 21 12.8571 20.6625 12.8571 20.25V9.75C12.8571 9.3375 12.4714 9 12 9ZM17.1429 9C16.6714 9 16.2857 9.3375 16.2857 9.75V20.25C16.2857 20.6625 16.6714 21 17.1429 21C17.6143 21 18 20.6625 18 20.25V9.75C18 9.3375 17.6143 9 17.1429 9Z" fill="#2E94B9"/>
</g>
<defs>
<clipPath id="clip0_247_66">
<rect width="24" height="24" fill="white"/>
</clipPath>
</defs>
</svg>
