<svg width="31" height="31" viewBox="0 0 31 31" fill="none" xmlns="http://www.w3.org/2000/svg">
<path d="M27.9424 8.58557C27.5366 7.64599 26.9515 6.79456 26.2198 6.07893C25.4876 5.36116 24.6243 4.79076 23.6769 4.39875C22.6944 3.99064 21.6407 3.78175 20.5769 3.7842C19.0844 3.7842 17.6282 4.19289 16.3628 4.96486C16.0601 5.14953 15.7725 5.35237 15.5 5.57336C15.2275 5.35237 14.9399 5.14953 14.6372 4.96486C13.3718 4.19289 11.9156 3.7842 10.4231 3.7842C9.34844 3.7842 8.30703 3.99006 7.32314 4.39875C6.37256 4.79231 5.51582 5.35842 4.78018 6.07893C4.04755 6.79375 3.46231 7.64539 3.05762 8.58557C2.63682 9.5634 2.42188 10.6018 2.42188 11.6704C2.42188 12.6785 2.62773 13.729 3.03643 14.7977C3.37852 15.6907 3.86895 16.6171 4.49561 17.5526C5.48857 19.0329 6.85391 20.5769 8.54922 22.142C11.3586 24.7364 14.1407 26.5286 14.2588 26.6013L14.9763 27.0614C15.2941 27.2643 15.7028 27.2643 16.0207 27.0614L16.7382 26.6013C16.8562 26.5256 19.6354 24.7364 22.4478 22.142C24.1431 20.5769 25.5084 19.0329 26.5014 17.5526C27.128 16.6171 27.6215 15.6907 27.9605 14.7977C28.3692 13.729 28.5751 12.6785 28.5751 11.6704C28.5781 10.6018 28.3632 9.5634 27.9424 8.58557V8.58557Z" fill="#14617D"/>
</svg>
